<svg width="205" height="201" viewBox="0 0 205 201" fill="none" xmlns="http://www.w3.org/2000/svg">
<path d="M103.85 0C104.892 0.162796 108.327 2.63887 109.638 3.36785C114.352 5.97204 119.245 8.23718 124.28 10.1458C135.198 14.2036 146.505 17.121 158.024 18.8513C162.677 19.5336 167.29 19.7269 171.652 20.3698C172.004 24.7613 171.842 31.8244 171.774 36.3178C171.433 58.6584 169.802 81.0924 160.98 101.897C152.234 122.519 137.269 137.45 118.418 149.074C114.643 151.401 108.062 155.211 104.077 156.81C102.781 156.441 97.6372 153.602 96.1281 152.772C80.2648 144.039 66.1223 133.129 55.7935 118.098C43.9103 100.804 39.5213 82.1257 37.4459 61.6094C36.6535 53.9718 36.1998 46.303 36.086 38.6255C36.0245 34.6754 36.0094 30.7248 36.0409 26.7744C36.0566 25.0953 36.0314 21.9451 36.3224 20.4131C37.564 20.2151 39.6983 20.1409 40.9989 20.0487C43.51 19.8766 46.0133 19.6075 48.5036 19.2416C63.3287 16.95 79.0288 12.9517 92.555 6.3402C94.9518 5.15969 97.3075 3.89745 99.6181 2.55577C101.041 1.71745 102.396 0.767875 103.85 0Z" fill="#D02626"/>
<path d="M103.968 11.1593C104.442 11.3102 107.969 13.2373 108.649 13.5904C111.468 15.0537 114.34 16.4108 117.26 17.6588C130.514 23.2339 147.807 27.9862 162.207 29.291C162.109 33.7831 162.189 38.3445 162.109 42.8341C161.946 50.2463 161.482 57.6489 160.72 65.0237C158.756 82.3835 153.703 100.331 143.213 114.55C142.177 115.955 139.3 119.686 138.01 120.713C138.126 114.721 138.173 108.729 138.154 102.736C138.147 97.6486 138.052 92.283 138.2 87.217C137.271 89.0925 136.18 90.9581 134.83 92.5622C134.053 93.4854 133.269 94.2502 132.497 95.2131C132.208 101.298 132.748 107.717 132.35 113.815C132.279 114.905 131.378 115.202 130.412 115.221C127.723 115.276 125.016 115.247 122.321 115.247H106.651L87.4045 115.249C85.5968 115.25 76.9207 115.518 75.9294 114.755C75.3187 113.035 75.6311 97.0317 75.6309 93.7743C72.7502 92.8466 71.8521 91.8039 69.663 89.7701C69.7472 100.068 69.576 110.299 69.8067 120.61C47.1686 95.3861 45.6925 61.6387 45.6933 29.4087C61.2561 28.2668 79.6822 22.8019 93.8571 16.3137C97.1831 14.7915 100.724 12.8674 103.968 11.1593Z" fill="white"/>
<path d="M79.1756 29.3257C82.3442 29.1679 86.625 29.2849 89.8717 29.2844L110.065 29.2825L122.287 29.2837C126.862 29.2852 131.106 28.5922 134.736 31.8709C136.16 33.1429 137.184 34.8008 137.684 36.6434C138.365 39.1609 138.083 42.9025 138.143 45.5913C138.252 50.5742 137.971 55.9188 138.185 60.8721C137.267 59.4631 136.178 57.7582 135.108 56.4914C134.272 55.5024 133.207 54.7767 132.408 53.6615C132.303 51.7431 132.858 43.2361 131.92 42.1448C131.582 41.7517 131.093 41.6271 130.601 41.5592C128.917 41.3261 127.016 41.4972 125.306 41.4988L115.379 41.4837L89.5581 41.4825C87.1432 41.4837 77.2995 41.1689 75.8288 42.0386C75.3192 43.5487 75.6355 66.9253 75.6173 70.2151C72.8847 71.1926 71.6805 72.4873 69.6506 74.4492C69.8315 72.5244 69.6653 67.834 69.6668 65.6703L69.6638 46.8822C69.6552 41.4168 68.7048 35.211 73.4577 31.5204C75.3623 30.0412 76.817 29.5411 79.1756 29.3257Z" fill="#D02626"/>
<path d="M94.34 34.4578C96.7221 34.4295 112.481 34.1668 113.453 34.5846C113.7 34.6913 113.906 34.9753 113.957 35.2356C114.069 35.7878 113.835 36.231 113.529 36.6649C111.712 36.9129 95.4884 36.9026 94.3389 36.5468C93.6624 35.8249 93.8904 35.2643 94.34 34.4578Z" fill="white"/>
<path d="M108.974 53.5996C109.596 53.724 110.298 53.9558 110.659 54.522C111.467 55.789 115.095 73.0671 115.769 76.0445C116.943 81.2263 118.319 86.4313 119.283 91.6515C119.346 91.9925 119.395 92.2302 119.294 92.5704C119.119 93.16 118.716 93.6881 118.179 93.9893C117.76 94.225 117.362 94.2526 116.89 94.1994C115.34 94.0251 113.766 93.4389 112.269 93.0074L105.032 90.9234C102.042 90.1191 99.1652 89.36 96.1837 88.4984C95.6779 86.7507 95.2067 84.5324 94.759 82.7271L91.3334 68.6999C94.521 66.6945 96.7497 64.6626 99.5134 62.3827C101.59 60.6693 107.222 54.3683 108.974 53.5996Z" fill="#D02626"/>
<path d="M88.0162 69.4255C88.2797 69.4017 88.5496 69.4011 88.8148 69.3942C88.8862 69.4479 88.9577 69.5018 89.0291 69.5556C90.4696 75.2543 92.3654 83.3174 93.6513 88.8298C90.0668 89.9228 86.0862 90.5518 82.4608 91.5835C80.2303 92.2184 78.9851 92.2052 76.8026 91.4794C70.7976 88.9256 68.3381 82.7367 71.5165 76.7973C73.6298 72.8477 77.5404 72.0797 81.5419 71.074C83.7034 70.538 85.8615 69.9885 88.0162 69.4255Z" fill="#D02626"/>
<path d="M90.9638 92.1427L91.217 92.1175C91.956 92.4821 97.9939 102.957 98.8115 104.259C100.702 107.268 92.5333 107.747 90.4484 106.995C88.3309 105.893 83.0129 96.7488 81.6356 94.3686C84.133 93.5867 88.3421 92.6845 90.9638 92.1427Z" fill="#D02626"/>
<path d="M115.688 66.6184C121.765 67.4934 124.02 74.3015 120.846 79.2047C120.441 79.7239 119.549 80.7952 118.84 80.6201C118.266 79.6183 115.745 68.0389 115.688 66.6184Z" fill="#D02626"/>
<path d="M119.808 49.1251C120.838 49.1429 122.499 49.928 122.246 50.9119C121.731 52.927 118.447 59.8054 117.165 60.9945C116.897 61.0348 116.452 61.0915 116.193 61.0546C115.787 60.9987 115.423 60.7758 115.187 60.4395C114.405 59.3404 115.852 56.3126 116.42 55.2054C117.273 53.5392 118.206 49.9871 119.808 49.1251Z" fill="#D02626"/>
<path d="M130.423 58.6667C132.958 58.9888 133.389 60.9831 131.493 62.2558C129.072 63.8805 126.024 65.7921 123.449 67.1125C121.737 67.5024 121.226 65.3451 121.69 64.8908C123.241 63.3705 128.588 59.232 130.423 58.6667Z" fill="#D02626"/>
<path d="M122.322 82.6906C123.849 82.7439 129.111 87.6869 130.584 88.8414C131.989 89.9435 131.271 91.0769 130.11 92.0438C129.812 92.1006 129.509 92.1401 129.204 92.1199C128.37 92.0648 122.16 86.242 121.378 85.2323C121.074 84.8384 120.991 84.4793 121.093 83.991C121.214 83.4122 121.882 83.0034 122.322 82.6906Z" fill="#D02626"/>
<path d="M125.506 74.8407C128.228 74.6601 131.755 74.921 134.528 75.0042C136.809 75.0727 137.072 77.0145 135.627 78.6268C134.296 79.0756 127.159 78.1279 125.446 77.7728C124.472 77.571 124.726 75.7156 125.506 74.8407Z" fill="#D02626"/>
<path d="M84.7626 134.142C88.5753 134.201 92.2867 134.444 96.1173 134.473C102.631 134.505 109.144 134.497 115.658 134.451C118.12 134.41 120.54 134.221 123.016 134.188C120.913 135.864 118.74 137.45 116.504 138.942C112.483 141.542 108.403 144.013 104.02 145.96C103.191 145.727 101.199 144.71 100.357 144.262C94.9447 141.379 89.5254 138.006 84.7626 134.142Z" fill="white"/>
<path d="M102.766 120.191C104.415 119.78 106.156 120.288 107.324 121.52C108.494 122.752 108.909 124.519 108.411 126.143C107.913 127.766 106.582 128.997 104.922 129.363C102.405 129.919 99.9071 128.35 99.3171 125.841C98.7271 123.331 100.264 120.814 102.766 120.191Z" fill="white"/>
<path d="M11.6923 167.857L19.8014 167.871C20.2159 169.438 20.9292 171.247 21.4939 172.788L24.4777 180.872C26.6594 186.808 29.0662 193.961 31.4631 199.684C29.6941 199.882 26.1935 199.783 24.329 199.768C23.3547 197.514 22.5241 194.758 21.6099 192.373L19.9535 192.405C16.4668 192.44 12.9796 192.431 9.49315 192.376C8.89513 194.515 7.75202 197.531 7.00708 199.7C4.80847 199.848 2.20311 199.796 0 199.75L7.71421 178.687C8.99662 175.174 10.3027 171.294 11.6923 167.857Z" fill="#D02626"/>
<path d="M15.5481 174.22C15.9081 174.742 17.2945 179.445 17.5776 180.314C18.3375 182.61 19.1254 184.897 19.9415 187.174C18.5943 187.203 17.1867 187.189 15.8344 187.193C14.3429 187.198 12.8514 187.19 11.36 187.17C12.7714 183.023 14.4619 178.403 15.5481 174.22Z" fill="white"/>
<path d="M189.907 175.77C196.68 174.735 203.011 179.386 204.046 186.159C205.08 192.931 200.428 199.261 193.653 200.294C186.88 201.328 180.551 196.677 179.516 189.905C178.482 183.133 183.133 176.805 189.907 175.77Z" fill="#D02626"/>
<path d="M190.94 180.941C195.321 180.699 197.115 183.543 197.247 187.547C197.361 191.032 196.417 194.068 192.721 195.178C191.576 195.439 190.375 195.274 189.342 194.714C185.904 192.826 185.627 186.822 187.303 183.673C188.138 182.107 189.297 181.398 190.94 180.941Z" fill="white"/>
<path d="M107.886 167.862L114.9 167.857C114.876 172.646 114.767 177.786 114.917 182.544C118.245 178.111 122.061 173.9 125.481 169.519C125.942 168.928 126.413 168.381 126.956 167.863L135.13 167.866C130.723 172.967 125.971 178.111 121.682 183.29C124.175 186.365 126.695 189.418 129.24 192.45C131.143 194.86 133.367 197.377 135.378 199.731C132.823 199.76 128.738 199.909 126.361 199.69C125.477 198.801 123.422 196.112 122.577 195.012C120.087 191.77 117.312 188.41 114.936 185.108C114.77 189.781 114.87 195.024 114.828 199.743C112.623 199.83 110.159 199.786 107.935 199.787C107.825 196.082 107.901 192.176 107.9 188.451L107.886 167.862Z" fill="#D02626"/>
<path d="M56.2812 175.941C65.2312 175.962 67.5632 182.149 67.5495 190.113L50.8727 190.161C50.9716 190.62 51.0929 191.102 51.2499 191.545C51.7398 192.942 52.7777 194.078 54.1241 194.691C57.8501 196.364 62.8352 194.767 66.3652 193.448L66.373 198.156C60.6511 200.521 53.0393 201.68 47.9348 197.211C43.1042 192.981 43.1932 184.034 47.5248 179.484C50.0188 176.866 52.7523 176.088 56.2812 175.941Z" fill="#D02626"/>
<path d="M55.1595 180.67C59.2177 180.356 60.7094 181.81 60.9803 185.792L56.6926 185.785C54.7749 185.802 52.8571 185.8 50.9395 185.783C51.4903 182.961 52.2373 181.504 55.1595 180.67Z" fill="white"/>
<path d="M147.519 176.076C152.256 175.723 157.154 176.866 158.266 182.194C158.794 184.723 158.625 187.5 158.625 190.095L158.644 199.781C157.391 199.788 153.88 199.869 152.749 199.694C152.537 199.338 152.619 199.114 152.611 198.628C152.563 198.56 152.515 198.492 152.468 198.424C147.893 200.75 141.048 201.767 137.738 196.764C137.275 195.776 137.026 194.551 137.009 193.463C136.889 186.013 146.735 185.55 152.092 185.519C152.03 181.689 150.242 180.77 146.689 180.91C143.287 181.044 141.755 181.675 138.821 183.235C138.889 181.818 139.047 179.283 139.962 178.188C141.332 176.551 145.506 176.219 147.519 176.076Z" fill="#D02626"/>
<path d="M150.774 189.406L152.205 189.366C152.222 190.131 152.292 191.168 152.163 191.895C151.571 195.2 148.239 195.968 145.429 195.27C143.507 194.507 143.023 192.402 144.325 190.846C145.519 189.418 148.949 189.496 150.774 189.406Z" fill="white"/>
<path d="M97.8852 169.543C98.0768 169.506 98.1146 169.544 98.3269 169.586C98.6486 170.261 98.5545 175.334 98.5826 176.551C100.297 176.494 102.155 176.517 103.881 176.506C103.841 178.062 103.836 179.618 103.869 181.174C102.14 181.209 100.328 181.183 98.5921 181.186C98.5306 183.692 98.1122 192.39 98.8702 194.188C99.0296 194.566 99.2629 194.808 99.6476 194.957C100.925 195.455 102.722 194.968 103.909 194.432C104.106 195.945 104.181 197.721 104.234 199.242C103.001 199.739 102.116 199.877 100.812 200.048C100.205 200.107 99.5965 200.138 98.9872 200.142C91.6129 200.225 91.9564 194.975 91.9661 189.613L91.9827 181.205L88.2856 181.191L88.2621 176.53C89.4969 176.524 90.7318 176.53 91.9666 176.549C91.9491 174.493 91.9673 172.437 92.0216 170.38C93.7362 170.274 96.0838 169.79 97.8852 169.543Z" fill="#D02626"/>
<path d="M33.9746 166.228C36.0989 166.247 38.257 166.22 40.3842 166.212L40.3753 199.796C38.2544 199.762 36.0744 199.787 33.9486 199.787C33.9006 188.601 33.9093 177.414 33.9746 166.228Z" fill="#D02626"/>
<path d="M174.605 176.067C175.71 175.982 176.821 176.02 177.918 176.181C177.968 178.165 177.93 180.261 177.925 182.255C176.364 181.985 174.688 181.964 173.162 182.419C168.859 183.703 169.572 188.254 169.583 191.74L169.573 199.76C167.727 199.809 165.725 199.771 163.867 199.772C163.367 199.771 163.543 199.869 163.245 199.616C163.09 197.896 163.207 193.928 163.205 192.08L163.211 176.481C165.255 176.521 167.417 176.483 169.469 176.481L169.579 179.274C170.992 177.409 172.261 176.415 174.605 176.067Z" fill="#D02626"/>
<path d="M82.9526 176.057C84.0814 175.995 85.0644 176.054 86.1846 176.159L86.1745 182.241C82.7629 181.864 78.182 182.191 77.7837 186.23C77.3944 190.178 77.6054 195.775 77.6244 199.753L72.1781 199.781C71.625 199.784 71.6412 199.882 71.334 199.61C70.9391 194.638 71.4723 189.001 71.2688 183.959C71.1756 181.651 71.2148 178.742 71.3526 176.439C73.4308 176.477 75.4337 176.513 77.5107 176.465C77.5831 177.406 77.6104 178.29 77.6372 179.234C79.306 177.213 80.3518 176.475 82.9526 176.057Z" fill="#D02626"/>
</svg>
